<?xml version="1.0" standalone="no"?><!DOCTYPE svg PUBLIC "-//W3C//DTD SVG 1.1//EN" "http://www.w3.org/Graphics/SVG/1.1/DTD/svg11.dtd"><svg t="1687414382285" class="icon" viewBox="0 0 1024 1024" version="1.1" xmlns="http://www.w3.org/2000/svg" p-id="2794" xmlns:xlink="http://www.w3.org/1999/xlink" width="200" height="200"><path d="M923.02 708.64c-259.89-124.31-562.09-124.31-821.98 0-22.83 11.3-37.2 34.63-37.01 60.1v156.8c0 19.03 15.43 34.46 34.46 34.46h827.08c19.01-0.04 34.39-15.46 34.39-34.46v-156.8a66.429 66.429 0 0 0-36.94-60.1z m-31.91 182.44H132.96v-121.3a877.202 877.202 0 0 1 379.08-85.46c131.16-0.21 260.69 29 379.08 85.46v121.3zM512.03 64C378.81 64 270.8 172 270.8 305.23s108 241.23 241.23 241.23 241.23-108 241.23-241.23S645.26 64 512.03 64z m0 413.54c-95.16 0-172.31-77.14-172.31-172.31s77.14-172.31 172.31-172.31 172.31 77.14 172.31 172.31-77.14 172.31-172.31 172.31z" p-id="2795" fill="#e6e6e6"></path></svg>