<?xml version="1.0" standalone="no"?><!DOCTYPE svg PUBLIC "-//W3C//DTD SVG 1.1//EN" "http://www.w3.org/Graphics/SVG/1.1/DTD/svg11.dtd"><svg t="1687414316431" class="icon" viewBox="0 0 1024 1024" version="1.1" xmlns="http://www.w3.org/2000/svg" p-id="2349" xmlns:xlink="http://www.w3.org/1999/xlink" width="200" height="200"><path d="M851.7 618.29H696.97a29.99 29.99 0 0 0-26.21 15.41l-78.3 140.66a30.014 30.014 0 0 0 0 29.19l78.3 140.61a30.014 30.014 0 0 0 26.21 15.41H851.7c10.89 0 20.92-5.9 26.21-15.41l78.3-140.63a30.014 30.014 0 0 0 0-29.19l-78.3-140.63a29.98 29.98 0 0 0-26.21-15.42zM829.03 888.3H719.64l-55.3-99.34 55.3-99.36h109.39l55.3 99.34-55.3 99.36z" p-id="2350" fill="#e6e6e6"></path><path d="M774.38 738.92c-27.59 0-49.96 22.39-49.96 50h-0.08v0.08c0.05 27.61 22.45 49.96 50.04 49.92 27.59 0 49.96-22.39 49.96-50s-22.37-50-49.96-50z" p-id="2351" fill="#e6e6e6"></path><path d="M541.76 894.86c-111.67 8.62-226.12-31.45-308.99-119.24A585.288 585.288 0 0 1 512 704c10.24 0.02 20.46 0.32 30.65 0.88 18.19 1 33.46-13.55 33.46-31.76v-0.4c0-16.88-13.18-30.86-30.03-31.77-11.33-0.61-22.7-0.93-34.08-0.94-112 0.26-222.04 29.48-319.42 84.8-85.72-128.84-85.72-296.55 0-425.4C310.05 122.83 548.41 74.92 724.99 192.39c120.03 79.85 180.6 215.58 170.19 349.78-1.43 18.44 13.22 34.17 31.72 34.17 16.6 0 30.42-12.76 31.72-29.31 0.91-11.56 1.38-23.24 1.39-35.03 0-247.42-200.58-448-448-448C264.58 64 64 264.58 64 512s200.58 448 448 448c11.71-0.01 23.31-0.48 34.8-1.37 16.55-1.29 29.32-15.12 29.32-31.72v-0.35c-0.01-18.57-15.84-33.13-34.36-31.7z" p-id="2352" fill="#e6e6e6"></path><path d="M512 220.16c-98.26 0-177.92 79.66-177.92 177.92S413.74 576 512 576c98.22-0.11 177.81-79.7 177.92-177.92 0-98.26-79.66-177.92-177.92-177.92zM512 512c-62.92 0-113.92-51-113.92-113.92s51-113.92 113.92-113.92c62.89 0.07 113.85 51.03 113.92 113.92C625.92 461 574.92 512 512 512z" p-id="2353" fill="#e6e6e6"></path></svg>